<svg xmlns="http://www.w3.org/2000/svg" width="920" height="420" viewBox="0 0 920 420" role="img" aria-labelledby="trainlens-improvement-plan-title trainlens-improvement-plan-description">
<title id="trainlens-improvement-plan-title">TrainLens improvement plan</title>
<desc id="trainlens-improvement-plan-description">Prioritized recommended actions with confidence and rationale.</desc>
<rect width="920" height="420" fill="#0b1020" />
<rect x="18" y="18" width="884" height="384" rx="18" fill="#111827" stroke="#293246" />
<text x="42.0" y="46.0" fill="#e5edf6" font-family="Inter, Segoe UI, Arial, sans-serif" font-size="26" font-weight="700">Improvement Plan</text>
<text x="42.0" y="70.0" fill="#94a3b8" font-family="Inter, Segoe UI, Arial, sans-serif" font-size="13" font-weight="500">Prioritized next experiments from the report</text>
<rect x="42.0" y="104.0" width="830.0" height="54.0" rx="10.0" fill="#172033" opacity="0.92" />
<rect x="42.0" y="104.0" width="8.0" height="54.0" rx="4.0" fill="#34d399" opacity="1.00" />
<text x="66.0" y="125.0" fill="#e5edf6" font-family="Inter, Segoe UI, Arial, sans-serif" font-size="14" font-weight="700">Validate projector alignment with frozen vision and language towers...</text>
<text x="66.0" y="145.0" fill="#94a3b8" font-family="Inter, Segoe UI, Arial, sans-serif" font-size="11" font-weight="500">Projector instability can hide as noisy captioning or instruction-following failures.</text>
<rect x="682.0" y="121.0" width="170.0" height="10.0" rx="5.0" fill="#0b1020" opacity="0.80" />
<rect x="682.0" y="121.0" width="139.4" height="10.0" rx="5.0" fill="#34d399" opacity="0.90" />
<text x="682.0" y="147.0" fill="#34d399" font-family="Inter, Segoe UI, Arial, sans-serif" font-size="11" font-weight="700">82%</text>
<rect x="42.0" y="176.0" width="830.0" height="54.0" rx="10.0" fill="#172033" opacity="0.92" />
<rect x="42.0" y="176.0" width="8.0" height="54.0" rx="4.0" fill="#22d3ee" opacity="1.00" />
<text x="66.0" y="197.0" fill="#e5edf6" font-family="Inter, Segoe UI, Arial, sans-serif" font-size="14" font-weight="700">Track eval_loss, perplexity, learning-rate schedule, and gradient n...</text>
<text x="66.0" y="217.0" fill="#94a3b8" font-family="Inter, Segoe UI, Arial, sans-serif" font-size="11" font-weight="500">LLM fine-tunes often look healthy in training loss while drifting on held-out prompts.</text>
<rect x="682.0" y="193.0" width="170.0" height="10.0" rx="5.0" fill="#0b1020" opacity="0.80" />
<rect x="682.0" y="193.0" width="129.2" height="10.0" rx="5.0" fill="#22d3ee" opacity="0.90" />
<text x="682.0" y="219.0" fill="#22d3ee" font-family="Inter, Segoe UI, Arial, sans-serif" font-size="11" font-weight="700">76%</text>
<rect x="42.0" y="248.0" width="830.0" height="54.0" rx="10.0" fill="#172033" opacity="0.92" />
<rect x="42.0" y="248.0" width="8.0" height="54.0" rx="4.0" fill="#f59e0b" opacity="1.00" />
<text x="66.0" y="269.0" fill="#e5edf6" font-family="Inter, Segoe UI, Arial, sans-serif" font-size="14" font-weight="700">Inspect learning rate, warmup ratio, effective batch size, and froz...</text>
<text x="66.0" y="289.0" fill="#94a3b8" font-family="Inter, Segoe UI, Arial, sans-serif" font-size="11" font-weight="500">A plateau usually means the optimizer is no longer moving useful parameters.</text>
<rect x="682.0" y="265.0" width="170.0" height="10.0" rx="5.0" fill="#0b1020" opacity="0.80" />
<rect x="682.0" y="265.0" width="124.1" height="10.0" rx="5.0" fill="#f59e0b" opacity="0.90" />
<text x="682.0" y="291.0" fill="#f59e0b" font-family="Inter, Segoe UI, Arial, sans-serif" font-size="11" font-weight="700">73%</text>
<rect x="42.0" y="320.0" width="830.0" height="54.0" rx="10.0" fill="#172033" opacity="0.92" />
<rect x="42.0" y="320.0" width="8.0" height="54.0" rx="4.0" fill="#a78bfa" opacity="1.00" />
<text x="66.0" y="341.0" fill="#e5edf6" font-family="Inter, Segoe UI, Arial, sans-serif" font-size="14" font-weight="700">Run a focused validation error analysis.</text>
<text x="66.0" y="361.0" fill="#94a3b8" font-family="Inter, Segoe UI, Arial, sans-serif" font-size="11" font-weight="500">Inspecting false positives and false negatives usually reveals the next useful experi...</text>
<rect x="682.0" y="337.0" width="170.0" height="10.0" rx="5.0" fill="#0b1020" opacity="0.80" />
<rect x="682.0" y="337.0" width="88.4" height="10.0" rx="5.0" fill="#a78bfa" opacity="0.90" />
<text x="682.0" y="363.0" fill="#a78bfa" font-family="Inter, Segoe UI, Arial, sans-serif" font-size="11" font-weight="700">52%</text>
</svg>
