<svg xmlns="http://www.w3.org/2000/svg" width="920" height="420" viewBox="0 0 920 420" role="img" aria-labelledby="trainlens-execution-timeline-title trainlens-execution-timeline-description">
<title id="trainlens-execution-timeline-title">TrainLens execution timeline</title>
<desc id="trainlens-execution-timeline-description">Timeline showing recent training events, checkpoints, and evaluations.</desc>
<rect width="920" height="420" fill="#0b1020" />
<rect x="18" y="18" width="884" height="384" rx="18" fill="#111827" stroke="#293246" />
<text x="42.0" y="46.0" fill="#e5edf6" font-family="Inter, Segoe UI, Arial, sans-serif" font-size="26" font-weight="700">Execution Timeline</text>
<text x="42.0" y="70.0" fill="#94a3b8" font-family="Inter, Segoe UI, Arial, sans-serif" font-size="13" font-weight="500">Recent run events connected to training evidence</text>
<line x1="82" y1="196" x2="838" y2="196" stroke="#293246" stroke-width="2" />
<rect x="74.0" y="188.0" width="16.0" height="16.0" rx="8.0" fill="#22d3ee" opacity="1.00" />
<text x="54.0" y="168.0" fill="#94a3b8" font-family="Inter, Segoe UI, Arial, sans-serif" font-size="12" font-weight="700">event 1</text>
<rect x="16.0" y="238.0" width="132.0" height="62.0" rx="9.0" fill="#172033" opacity="0.92" />
<rect x="16.0" y="238.0" width="132.0" height="4.0" rx="2.0" fill="#22d3ee" opacity="1.00" />
<text x="28.0" y="262.0" fill="#e5edf6" font-family="Inter, Segoe UI, Arial, sans-serif" font-size="13" font-weight="700">training event</text>
<text x="28.0" y="282.0" fill="#94a3b8" font-family="Inter, Segoe UI, Arial, sans-serif" font-size="11" font-weight="600">no scalar metrics</text>
<line x1="82.0" y1="196" x2="82.0" y2="238" stroke="#22d3ee" stroke-width="1.5" opacity="0.65" />
<rect x="200.0" y="188.0" width="16.0" height="16.0" rx="8.0" fill="#22d3ee" opacity="1.00" />
<text x="180.0" y="168.0" fill="#94a3b8" font-family="Inter, Segoe UI, Arial, sans-serif" font-size="12" font-weight="700">step 100</text>
<rect x="142.0" y="104.0" width="132.0" height="62.0" rx="9.0" fill="#172033" opacity="0.92" />
<rect x="142.0" y="104.0" width="132.0" height="4.0" rx="2.0" fill="#22d3ee" opacity="1.00" />
<text x="154.0" y="128.0" fill="#e5edf6" font-family="Inter, Segoe UI, Arial, sans-serif" font-size="13" font-weight="700">batch_end</text>
<text x="154.0" y="148.0" fill="#94a3b8" font-family="Inter, Segoe UI, Arial, sans-serif" font-size="11" font-weight="600">loss=2.42</text>
<line x1="208.0" y1="196" x2="208.0" y2="166" stroke="#22d3ee" stroke-width="1.5" opacity="0.65" />
<rect x="326.0" y="188.0" width="16.0" height="16.0" rx="8.0" fill="#22d3ee" opacity="1.00" />
<text x="306.0" y="168.0" fill="#94a3b8" font-family="Inter, Segoe UI, Arial, sans-serif" font-size="12" font-weight="700">step 200</text>
<rect x="268.0" y="238.0" width="132.0" height="62.0" rx="9.0" fill="#172033" opacity="0.92" />
<rect x="268.0" y="238.0" width="132.0" height="4.0" rx="2.0" fill="#22d3ee" opacity="1.00" />
<text x="280.0" y="262.0" fill="#e5edf6" font-family="Inter, Segoe UI, Arial, sans-serif" font-size="13" font-weight="700">batch_end</text>
<text x="280.0" y="282.0" fill="#94a3b8" font-family="Inter, Segoe UI, Arial, sans-serif" font-size="11" font-weight="600">loss=2.04</text>
<line x1="334.0" y1="196" x2="334.0" y2="238" stroke="#22d3ee" stroke-width="1.5" opacity="0.65" />
<rect x="452.0" y="188.0" width="16.0" height="16.0" rx="8.0" fill="#f59e0b" opacity="1.00" />
<text x="432.0" y="168.0" fill="#94a3b8" font-family="Inter, Segoe UI, Arial, sans-serif" font-size="12" font-weight="700">step 300</text>
<rect x="394.0" y="104.0" width="132.0" height="62.0" rx="9.0" fill="#172033" opacity="0.92" />
<rect x="394.0" y="104.0" width="132.0" height="4.0" rx="2.0" fill="#f59e0b" opacity="1.00" />
<text x="406.0" y="128.0" fill="#e5edf6" font-family="Inter, Segoe UI, Arial, sans-serif" font-size="13" font-weight="700">eval</text>
<text x="406.0" y="148.0" fill="#94a3b8" font-family="Inter, Segoe UI, Arial, sans-serif" font-size="11" font-weight="600">eval_loss=2.12</text>
<line x1="460.0" y1="196" x2="460.0" y2="166" stroke="#f59e0b" stroke-width="1.5" opacity="0.65" />
<rect x="578.0" y="188.0" width="16.0" height="16.0" rx="8.0" fill="#22d3ee" opacity="1.00" />
<text x="558.0" y="168.0" fill="#94a3b8" font-family="Inter, Segoe UI, Arial, sans-serif" font-size="12" font-weight="700">step 400</text>
<rect x="520.0" y="238.0" width="132.0" height="62.0" rx="9.0" fill="#172033" opacity="0.92" />
<rect x="520.0" y="238.0" width="132.0" height="4.0" rx="2.0" fill="#22d3ee" opacity="1.00" />
<text x="532.0" y="262.0" fill="#e5edf6" font-family="Inter, Segoe UI, Arial, sans-serif" font-size="13" font-weight="700">batch_end</text>
<text x="532.0" y="282.0" fill="#94a3b8" font-family="Inter, Segoe UI, Arial, sans-serif" font-size="11" font-weight="600">loss=1.82</text>
<line x1="586.0" y1="196" x2="586.0" y2="238" stroke="#22d3ee" stroke-width="1.5" opacity="0.65" />
<rect x="704.0" y="188.0" width="16.0" height="16.0" rx="8.0" fill="#f59e0b" opacity="1.00" />
<text x="684.0" y="168.0" fill="#94a3b8" font-family="Inter, Segoe UI, Arial, sans-serif" font-size="12" font-weight="700">step 500</text>
<rect x="646.0" y="104.0" width="132.0" height="62.0" rx="9.0" fill="#172033" opacity="0.92" />
<rect x="646.0" y="104.0" width="132.0" height="4.0" rx="2.0" fill="#f59e0b" opacity="1.00" />
<text x="658.0" y="128.0" fill="#e5edf6" font-family="Inter, Segoe UI, Arial, sans-serif" font-size="13" font-weight="700">eval</text>
<text x="658.0" y="148.0" fill="#94a3b8" font-family="Inter, Segoe UI, Arial, sans-serif" font-size="11" font-weight="600">eval_loss=2.02</text>
<line x1="712.0" y1="196" x2="712.0" y2="166" stroke="#f59e0b" stroke-width="1.5" opacity="0.65" />
<rect x="830.0" y="188.0" width="16.0" height="16.0" rx="8.0" fill="#a78bfa" opacity="1.00" />
<text x="810.0" y="168.0" fill="#94a3b8" font-family="Inter, Segoe UI, Arial, sans-serif" font-size="12" font-weight="700">step 600</text>
<rect x="772.0" y="238.0" width="132.0" height="62.0" rx="9.0" fill="#172033" opacity="0.92" />
<rect x="772.0" y="238.0" width="132.0" height="4.0" rx="2.0" fill="#a78bfa" opacity="1.00" />
<text x="784.0" y="262.0" fill="#e5edf6" font-family="Inter, Segoe UI, Arial, sans-serif" font-size="13" font-weight="700">checkpoint</text>
<text x="784.0" y="282.0" fill="#94a3b8" font-family="Inter, Segoe UI, Arial, sans-serif" font-size="11" font-weight="600">eval_loss=2.01</text>
<line x1="838.0" y1="196" x2="838.0" y2="238" stroke="#a78bfa" stroke-width="1.5" opacity="0.65" />
</svg>
